<?xml version="1.0" encoding="utf-8"?>
<!-- Generator: Adobe Illustrator 24.0.2, SVG Export Plug-In . SVG Version: 6.00 Build 0)  -->
<svg version="1.1" id="Layer_1" xmlns="http://www.w3.org/2000/svg" xmlns:xlink="http://www.w3.org/1999/xlink" x="0px" y="0px"
	 viewBox="0 0 130 44" style="enable-background:new 0 0 130 44;" xml:space="preserve">
<style type="text/css">
	.st0{fill:#006759;}
</style>
<g>
	<path class="st0" d="M126,28.5h-2.6c0-10.9-8.8-19.7-19.7-19.7V6.1C116,6.1,126,16.2,126,28.5"/>
	<path class="st0" d="M119,28.5h-2.6c0-7-5.7-12.7-12.7-12.7v-2.6C112.1,13.2,119,20,119,28.5"/>
	<path class="st0" d="M112,28.5h-2.6c0-3.1-2.5-5.7-5.7-5.7v-2.6C108.3,20.2,112,23.9,112,28.5"/>
	<path class="st0" d="M100.3,28c1.1,1.7,2.8,2.8,4.9,3.4c-3.9,5.5-7.9-3.6-6.8-6.4c1.6,1,4.2-0.6,6.4,0.2c2.2,0.8,3,3.3,0.9,5.1
		c1.3,0.7,2.7-0.6,3.4,0.4c-0.3,1-1.9,0.7-2.6,0.6C104.2,30.8,101.9,29.5,100.3,28"/>
	<path class="st0" d="M8.1,17.6c-1.2,1.4-2,3.2-1.9,5.7c0.1,2.4,1,4,2.4,5.2c1.4,1.2,3.3,2.1,5.6,1.9c2.3-0.2,3.9-1.1,5.1-2.5
		c1.2-1.3,2.1-3.1,2-5.6c-0.1-2.1-1.2-4.1-2.4-5.2c-1.3-1.2-3.3-2.1-5.6-2C10.9,15.3,9.3,16.3,8.1,17.6 M6.4,39.3H3.8V13.1
		c0.8,0,1.8-0.1,2.6,0v3.3c1.1-1.4,2.5-2.7,4.4-3.3c2-0.7,4.6-0.7,6.7,0.1c1.7,0.6,3.3,2,4.4,3.5c1.2,1.6,1.9,3.6,1.9,6
		c0,2.6-0.7,4.5-1.8,6c-1.1,1.5-2.6,2.8-4.4,3.5C16,32.9,13,33,11,32.3c-1.7-0.6-3.1-1.8-4.4-3c0,0-0.1-0.3-0.2-0.1
		c-0.1,0.2,0,0.8,0,1.2C6.4,33.5,6.4,36.7,6.4,39.3"/>
	<path class="st0" d="M38,15.1c-3.8,0.2-5.6,2.5-6.6,5.6h14.1C44.7,17.5,42.2,14.9,38,15.1 M48.4,23H31.2c0.2,4,2.2,6.7,5.8,7.4
		c4.3,0.7,7-1.7,8.6-4.4c0.7,0.3,1.4,0.7,2.1,1.1c-1.6,3.1-3.8,5.3-7.8,5.7c-6.1,0.7-10.8-3.1-11.3-8.8c-0.2-2.1,0.1-4,0.9-5.7
		c1.4-2.9,4-5.4,8.1-5.6c3.6-0.2,6.1,1,7.8,2.8C47.2,17.2,48.3,19.5,48.4,23"/>
	<path class="st0" d="M57.6,17.5c-1,1.2-2.1,3-2.1,5.2c0,2.4,1,4.1,2.2,5.4c1.3,1.4,3.1,2.3,5.3,2.3c2.1,0,4.1-0.9,5.4-2.2
		c1.3-1.2,2.2-3.1,2.1-5.5c0-2.5-1.1-4.3-2.3-5.6c-1.3-1.3-3.2-2.2-5.8-2.1C60.3,15.3,58.8,16.2,57.6,17.5 M70.5,16.5v-3.4H73
		c0.1,6.3,0,12.8,0,19.2c-0.8,0.1-1.7,0-2.6,0v-3.2c-2,2.2-4.6,4.1-8.9,3.6c-3.3-0.4-6-2.4-7.4-5.2c-1.6-3-1.5-7.3,0.1-10.1
		c1.5-2.5,4.1-4.7,7.8-4.9C66.4,12.3,68.7,14.2,70.5,16.5"/>
	<path class="st0" d="M80.4,7.8l0,2.7c0,1,0,1.9,0,2.7h5.2c0,0.9,0,1.8,0,2.7c-1.7,0-5.2,0-5.2,0s-0.2,7.4,0.4,10.2
		c0.5,2.7,3,4.4,6.1,4.5c3.2,0,5.5-1.9,6.8-4.2l2.1,1.3c-0.5,0.6-0.8,1.3-1.3,1.9c-1.7,2.1-4.4,3.9-8.4,3.4
		c-3.6-0.4-6.5-2.4-7.4-5.3c-1-3-0.8-11.9-0.8-11.9l-1.5,0v-2.7h1.5V7.8H80.4z"/>
</g>
</svg>
